<mxfile host="app.diagrams.net" modified="2023-08-20T06:56:43.463Z" agent="Mozilla/5.0 (Windows NT 10.0; Win64; x64) AppleWebKit/537.36 (KHTML, like Gecko) Chrome/115.0.0.0 Safari/537.36 OPR/101.0.0.0" etag="ks0GQeo1ISYv0gR5-iE8" version="21.6.8" type="device">
  <diagram name="Sayfa -1" id="paLA4IUOuisR8dJJKOSV">
    <mxGraphModel dx="2033" dy="1505" grid="0" gridSize="10" guides="1" tooltips="1" connect="1" arrows="1" fold="1" page="0" pageScale="1" pageWidth="583" pageHeight="827" background="none" math="0" shadow="0">
      <root>
        <mxCell id="0" />
        <mxCell id="1" parent="0" />
        <mxCell id="ACM8DL77gfRhHcdZKNCy-1" value="Hayvanlar" style="swimlane;fontStyle=1;align=center;verticalAlign=top;childLayout=stackLayout;horizontal=1;startSize=26;horizontalStack=0;resizeParent=1;resizeParentMax=0;resizeLast=0;collapsible=1;marginBottom=0;whiteSpace=wrap;html=1;" vertex="1" parent="1">
          <mxGeometry x="504" y="-780" width="160" height="140" as="geometry" />
        </mxCell>
        <mxCell id="ACM8DL77gfRhHcdZKNCy-2" value="+ ad: string&lt;br&gt;+ agirlik: int&lt;br&gt;+ yas: int" style="text;strokeColor=none;fillColor=none;align=left;verticalAlign=top;spacingLeft=4;spacingRight=4;overflow=hidden;rotatable=0;points=[[0,0.5],[1,0.5]];portConstraint=eastwest;whiteSpace=wrap;html=1;" vertex="1" parent="ACM8DL77gfRhHcdZKNCy-1">
          <mxGeometry y="26" width="160" height="54" as="geometry" />
        </mxCell>
        <mxCell id="ACM8DL77gfRhHcdZKNCy-3" value="" style="line;strokeWidth=1;fillColor=none;align=left;verticalAlign=middle;spacingTop=-1;spacingLeft=3;spacingRight=3;rotatable=0;labelPosition=right;points=[];portConstraint=eastwest;strokeColor=inherit;" vertex="1" parent="ACM8DL77gfRhHcdZKNCy-1">
          <mxGeometry y="80" width="160" height="10" as="geometry" />
        </mxCell>
        <mxCell id="ACM8DL77gfRhHcdZKNCy-4" value="+ getDosage(): void&lt;br&gt;+ getFeedSchedule(): void" style="text;strokeColor=none;fillColor=none;align=left;verticalAlign=top;spacingLeft=4;spacingRight=4;overflow=hidden;rotatable=0;points=[[0,0.5],[1,0.5]];portConstraint=eastwest;whiteSpace=wrap;html=1;" vertex="1" parent="ACM8DL77gfRhHcdZKNCy-1">
          <mxGeometry y="90" width="160" height="50" as="geometry" />
        </mxCell>
        <mxCell id="ACM8DL77gfRhHcdZKNCy-5" value="Atlar" style="swimlane;fontStyle=1;align=center;verticalAlign=top;childLayout=stackLayout;horizontal=1;startSize=26;horizontalStack=0;resizeParent=1;resizeParentMax=0;resizeLast=0;collapsible=1;marginBottom=0;whiteSpace=wrap;html=1;" vertex="1" parent="1">
          <mxGeometry x="-70" y="-500" width="160" height="70" as="geometry" />
        </mxCell>
        <mxCell id="ACM8DL77gfRhHcdZKNCy-7" value="" style="line;strokeWidth=1;fillColor=none;align=left;verticalAlign=middle;spacingTop=-1;spacingLeft=3;spacingRight=3;rotatable=0;labelPosition=right;points=[];portConstraint=eastwest;strokeColor=inherit;" vertex="1" parent="ACM8DL77gfRhHcdZKNCy-5">
          <mxGeometry y="26" width="160" height="44" as="geometry" />
        </mxCell>
        <mxCell id="ACM8DL77gfRhHcdZKNCy-21" value="" style="edgeStyle=orthogonalEdgeStyle;rounded=0;orthogonalLoop=1;jettySize=auto;html=1;endArrow=block;endFill=0;" edge="1" parent="1" source="ACM8DL77gfRhHcdZKNCy-9" target="ACM8DL77gfRhHcdZKNCy-4">
          <mxGeometry relative="1" as="geometry">
            <Array as="points">
              <mxPoint x="584" y="-560" />
              <mxPoint x="584" y="-560" />
            </Array>
          </mxGeometry>
        </mxCell>
        <mxCell id="ACM8DL77gfRhHcdZKNCy-9" value="Kedigiller" style="swimlane;fontStyle=1;align=center;verticalAlign=top;childLayout=stackLayout;horizontal=1;startSize=26;horizontalStack=0;resizeParent=1;resizeParentMax=0;resizeLast=0;collapsible=1;marginBottom=0;whiteSpace=wrap;html=1;" vertex="1" parent="1">
          <mxGeometry x="510" y="-510" width="160" height="70" as="geometry" />
        </mxCell>
        <mxCell id="ACM8DL77gfRhHcdZKNCy-10" value="" style="line;strokeWidth=1;fillColor=none;align=left;verticalAlign=middle;spacingTop=-1;spacingLeft=3;spacingRight=3;rotatable=0;labelPosition=right;points=[];portConstraint=eastwest;strokeColor=inherit;" vertex="1" parent="ACM8DL77gfRhHcdZKNCy-9">
          <mxGeometry y="26" width="160" height="44" as="geometry" />
        </mxCell>
        <mxCell id="ACM8DL77gfRhHcdZKNCy-11" value="Kemirgenler" style="swimlane;fontStyle=1;align=center;verticalAlign=top;childLayout=stackLayout;horizontal=1;startSize=26;horizontalStack=0;resizeParent=1;resizeParentMax=0;resizeLast=0;collapsible=1;marginBottom=0;whiteSpace=wrap;html=1;" vertex="1" parent="1">
          <mxGeometry x="1020" y="-510" width="160" height="70" as="geometry" />
        </mxCell>
        <mxCell id="ACM8DL77gfRhHcdZKNCy-12" value="" style="line;strokeWidth=1;fillColor=none;align=left;verticalAlign=middle;spacingTop=-1;spacingLeft=3;spacingRight=3;rotatable=0;labelPosition=right;points=[];portConstraint=eastwest;strokeColor=inherit;" vertex="1" parent="ACM8DL77gfRhHcdZKNCy-11">
          <mxGeometry y="26" width="160" height="44" as="geometry" />
        </mxCell>
        <mxCell id="ACM8DL77gfRhHcdZKNCy-25" value="" style="endArrow=none;html=1;rounded=0;exitX=0.5;exitY=0;exitDx=0;exitDy=0;" edge="1" parent="1" source="ACM8DL77gfRhHcdZKNCy-5">
          <mxGeometry width="50" height="50" relative="1" as="geometry">
            <mxPoint x="580" y="-570" as="sourcePoint" />
            <mxPoint x="584" y="-550" as="targetPoint" />
            <Array as="points">
              <mxPoint x="10" y="-550" />
              <mxPoint x="290" y="-550" />
            </Array>
          </mxGeometry>
        </mxCell>
        <mxCell id="ACM8DL77gfRhHcdZKNCy-26" value="" style="endArrow=none;html=1;rounded=0;" edge="1" parent="1">
          <mxGeometry width="50" height="50" relative="1" as="geometry">
            <mxPoint x="580" y="-550" as="sourcePoint" />
            <mxPoint x="1100" y="-550" as="targetPoint" />
            <Array as="points" />
          </mxGeometry>
        </mxCell>
        <mxCell id="ACM8DL77gfRhHcdZKNCy-27" value="" style="endArrow=none;html=1;rounded=0;exitX=0.5;exitY=0;exitDx=0;exitDy=0;" edge="1" parent="1" source="ACM8DL77gfRhHcdZKNCy-11">
          <mxGeometry width="50" height="50" relative="1" as="geometry">
            <mxPoint x="580" y="-570" as="sourcePoint" />
            <mxPoint x="1100" y="-550" as="targetPoint" />
          </mxGeometry>
        </mxCell>
        <mxCell id="ACM8DL77gfRhHcdZKNCy-45" value="" style="edgeStyle=orthogonalEdgeStyle;rounded=0;orthogonalLoop=1;jettySize=auto;html=1;endArrow=block;endFill=0;" edge="1" parent="1" target="ACM8DL77gfRhHcdZKNCy-7">
          <mxGeometry relative="1" as="geometry">
            <mxPoint x="10" y="-380" as="sourcePoint" />
            <Array as="points">
              <mxPoint x="10" y="-420" />
              <mxPoint x="10" y="-420" />
            </Array>
          </mxGeometry>
        </mxCell>
        <mxCell id="ACM8DL77gfRhHcdZKNCy-46" value="" style="endArrow=none;html=1;rounded=0;exitX=0.5;exitY=0;exitDx=0;exitDy=0;" edge="1" parent="1">
          <mxGeometry width="50" height="50" relative="1" as="geometry">
            <mxPoint x="-211" y="-380" as="sourcePoint" />
            <mxPoint x="10" y="-400" as="targetPoint" />
            <Array as="points">
              <mxPoint x="-211" y="-400" />
            </Array>
          </mxGeometry>
        </mxCell>
        <mxCell id="ACM8DL77gfRhHcdZKNCy-47" value="" style="endArrow=none;html=1;rounded=0;exitX=0.544;exitY=0;exitDx=0;exitDy=0;exitPerimeter=0;" edge="1" parent="1">
          <mxGeometry width="50" height="50" relative="1" as="geometry">
            <mxPoint x="237.03999999999996" y="-380" as="sourcePoint" />
            <mxPoint x="10" y="-400" as="targetPoint" />
            <Array as="points">
              <mxPoint x="237" y="-400" />
            </Array>
          </mxGeometry>
        </mxCell>
        <mxCell id="ACM8DL77gfRhHcdZKNCy-48" value="" style="endArrow=block;html=1;rounded=0;exitX=0.463;exitY=-0.014;exitDx=0;exitDy=0;exitPerimeter=0;endFill=0;" edge="1" parent="1">
          <mxGeometry width="50" height="50" relative="1" as="geometry">
            <mxPoint x="497.0799999999999" y="-380.9799999999998" as="sourcePoint" />
            <mxPoint x="590" y="-440" as="targetPoint" />
            <Array as="points">
              <mxPoint x="497" y="-400" />
              <mxPoint x="590" y="-400" />
            </Array>
          </mxGeometry>
        </mxCell>
        <mxCell id="ACM8DL77gfRhHcdZKNCy-50" value="" style="endArrow=none;html=1;rounded=0;exitX=0.56;exitY=0;exitDx=0;exitDy=0;exitPerimeter=0;" edge="1" parent="1">
          <mxGeometry width="50" height="50" relative="1" as="geometry">
            <mxPoint x="719.5999999999999" y="-380" as="sourcePoint" />
            <mxPoint x="590" y="-400" as="targetPoint" />
            <Array as="points">
              <mxPoint x="710" y="-380" />
              <mxPoint x="710" y="-400" />
              <mxPoint x="690" y="-400" />
            </Array>
          </mxGeometry>
        </mxCell>
        <mxCell id="ACM8DL77gfRhHcdZKNCy-51" value="" style="endArrow=block;html=1;rounded=0;exitX=0.561;exitY=-0.035;exitDx=0;exitDy=0;exitPerimeter=0;endFill=0;" edge="1" parent="1" target="ACM8DL77gfRhHcdZKNCy-12">
          <mxGeometry width="50" height="50" relative="1" as="geometry">
            <mxPoint x="999.7599999999998" y="-382.45000000000005" as="sourcePoint" />
            <mxPoint x="1100" y="-400" as="targetPoint" />
            <Array as="points">
              <mxPoint x="1000" y="-400" />
              <mxPoint x="1050" y="-400" />
              <mxPoint x="1080" y="-400" />
              <mxPoint x="1100" y="-400" />
            </Array>
          </mxGeometry>
        </mxCell>
        <mxCell id="ACM8DL77gfRhHcdZKNCy-53" value="" style="endArrow=none;html=1;rounded=0;" edge="1" parent="1">
          <mxGeometry width="50" height="50" relative="1" as="geometry">
            <mxPoint x="1220" y="-380" as="sourcePoint" />
            <mxPoint x="1100" y="-400" as="targetPoint" />
            <Array as="points">
              <mxPoint x="1220" y="-400" />
            </Array>
          </mxGeometry>
        </mxCell>
        <mxCell id="ACM8DL77gfRhHcdZKNCy-73" value="Eşekler" style="swimlane;fontStyle=1;align=center;verticalAlign=top;childLayout=stackLayout;horizontal=1;startSize=26;horizontalStack=0;resizeParent=1;resizeParentMax=0;resizeLast=0;collapsible=1;marginBottom=0;whiteSpace=wrap;html=1;" vertex="1" parent="1">
          <mxGeometry x="150" y="-380" width="160" height="86" as="geometry" />
        </mxCell>
        <mxCell id="ACM8DL77gfRhHcdZKNCy-75" value="" style="line;strokeWidth=1;fillColor=none;align=left;verticalAlign=middle;spacingTop=-1;spacingLeft=3;spacingRight=3;rotatable=0;labelPosition=right;points=[];portConstraint=eastwest;strokeColor=inherit;" vertex="1" parent="ACM8DL77gfRhHcdZKNCy-73">
          <mxGeometry y="26" width="160" height="10" as="geometry" />
        </mxCell>
        <mxCell id="ACM8DL77gfRhHcdZKNCy-76" value="+ getDosage(): void&lt;br&gt;+ getFeedSchedule(): void" style="text;strokeColor=none;fillColor=none;align=left;verticalAlign=top;spacingLeft=4;spacingRight=4;overflow=hidden;rotatable=0;points=[[0,0.5],[1,0.5]];portConstraint=eastwest;whiteSpace=wrap;html=1;" vertex="1" parent="ACM8DL77gfRhHcdZKNCy-73">
          <mxGeometry y="36" width="160" height="50" as="geometry" />
        </mxCell>
        <mxCell id="ACM8DL77gfRhHcdZKNCy-77" value="Zebralar" style="swimlane;fontStyle=1;align=center;verticalAlign=top;childLayout=stackLayout;horizontal=1;startSize=26;horizontalStack=0;resizeParent=1;resizeParentMax=0;resizeLast=0;collapsible=1;marginBottom=0;whiteSpace=wrap;html=1;" vertex="1" parent="1">
          <mxGeometry x="-70" y="-380" width="160" height="86" as="geometry" />
        </mxCell>
        <mxCell id="ACM8DL77gfRhHcdZKNCy-78" value="" style="line;strokeWidth=1;fillColor=none;align=left;verticalAlign=middle;spacingTop=-1;spacingLeft=3;spacingRight=3;rotatable=0;labelPosition=right;points=[];portConstraint=eastwest;strokeColor=inherit;" vertex="1" parent="ACM8DL77gfRhHcdZKNCy-77">
          <mxGeometry y="26" width="160" height="10" as="geometry" />
        </mxCell>
        <mxCell id="ACM8DL77gfRhHcdZKNCy-79" value="+ getDosage(): void&lt;br&gt;+ getFeedSchedule(): void" style="text;strokeColor=none;fillColor=none;align=left;verticalAlign=top;spacingLeft=4;spacingRight=4;overflow=hidden;rotatable=0;points=[[0,0.5],[1,0.5]];portConstraint=eastwest;whiteSpace=wrap;html=1;" vertex="1" parent="ACM8DL77gfRhHcdZKNCy-77">
          <mxGeometry y="36" width="160" height="50" as="geometry" />
        </mxCell>
        <mxCell id="ACM8DL77gfRhHcdZKNCy-80" value="Atlar" style="swimlane;fontStyle=1;align=center;verticalAlign=top;childLayout=stackLayout;horizontal=1;startSize=26;horizontalStack=0;resizeParent=1;resizeParentMax=0;resizeLast=0;collapsible=1;marginBottom=0;whiteSpace=wrap;html=1;" vertex="1" parent="1">
          <mxGeometry x="-280" y="-380" width="160" height="86" as="geometry" />
        </mxCell>
        <mxCell id="ACM8DL77gfRhHcdZKNCy-81" value="" style="line;strokeWidth=1;fillColor=none;align=left;verticalAlign=middle;spacingTop=-1;spacingLeft=3;spacingRight=3;rotatable=0;labelPosition=right;points=[];portConstraint=eastwest;strokeColor=inherit;" vertex="1" parent="ACM8DL77gfRhHcdZKNCy-80">
          <mxGeometry y="26" width="160" height="10" as="geometry" />
        </mxCell>
        <mxCell id="ACM8DL77gfRhHcdZKNCy-82" value="+ getDosage(): void&lt;br&gt;+ getFeedSchedule(): void" style="text;strokeColor=none;fillColor=none;align=left;verticalAlign=top;spacingLeft=4;spacingRight=4;overflow=hidden;rotatable=0;points=[[0,0.5],[1,0.5]];portConstraint=eastwest;whiteSpace=wrap;html=1;" vertex="1" parent="ACM8DL77gfRhHcdZKNCy-80">
          <mxGeometry y="36" width="160" height="50" as="geometry" />
        </mxCell>
        <mxCell id="ACM8DL77gfRhHcdZKNCy-83" value="Kaplanlar" style="swimlane;fontStyle=1;align=center;verticalAlign=top;childLayout=stackLayout;horizontal=1;startSize=26;horizontalStack=0;resizeParent=1;resizeParentMax=0;resizeLast=0;collapsible=1;marginBottom=0;whiteSpace=wrap;html=1;" vertex="1" parent="1">
          <mxGeometry x="410" y="-380" width="160" height="86" as="geometry" />
        </mxCell>
        <mxCell id="ACM8DL77gfRhHcdZKNCy-84" value="" style="line;strokeWidth=1;fillColor=none;align=left;verticalAlign=middle;spacingTop=-1;spacingLeft=3;spacingRight=3;rotatable=0;labelPosition=right;points=[];portConstraint=eastwest;strokeColor=inherit;" vertex="1" parent="ACM8DL77gfRhHcdZKNCy-83">
          <mxGeometry y="26" width="160" height="10" as="geometry" />
        </mxCell>
        <mxCell id="ACM8DL77gfRhHcdZKNCy-85" value="+ getDosage(): void&lt;br&gt;+ getFeedSchedule(): void" style="text;strokeColor=none;fillColor=none;align=left;verticalAlign=top;spacingLeft=4;spacingRight=4;overflow=hidden;rotatable=0;points=[[0,0.5],[1,0.5]];portConstraint=eastwest;whiteSpace=wrap;html=1;" vertex="1" parent="ACM8DL77gfRhHcdZKNCy-83">
          <mxGeometry y="36" width="160" height="50" as="geometry" />
        </mxCell>
        <mxCell id="ACM8DL77gfRhHcdZKNCy-86" value="Aslanlar" style="swimlane;fontStyle=1;align=center;verticalAlign=top;childLayout=stackLayout;horizontal=1;startSize=26;horizontalStack=0;resizeParent=1;resizeParentMax=0;resizeLast=0;collapsible=1;marginBottom=0;whiteSpace=wrap;html=1;" vertex="1" parent="1">
          <mxGeometry x="620" y="-380" width="160" height="86" as="geometry" />
        </mxCell>
        <mxCell id="ACM8DL77gfRhHcdZKNCy-87" value="" style="line;strokeWidth=1;fillColor=none;align=left;verticalAlign=middle;spacingTop=-1;spacingLeft=3;spacingRight=3;rotatable=0;labelPosition=right;points=[];portConstraint=eastwest;strokeColor=inherit;" vertex="1" parent="ACM8DL77gfRhHcdZKNCy-86">
          <mxGeometry y="26" width="160" height="10" as="geometry" />
        </mxCell>
        <mxCell id="ACM8DL77gfRhHcdZKNCy-88" value="+ getDosage(): void&lt;br&gt;+ getFeedSchedule(): void" style="text;strokeColor=none;fillColor=none;align=left;verticalAlign=top;spacingLeft=4;spacingRight=4;overflow=hidden;rotatable=0;points=[[0,0.5],[1,0.5]];portConstraint=eastwest;whiteSpace=wrap;html=1;" vertex="1" parent="ACM8DL77gfRhHcdZKNCy-86">
          <mxGeometry y="36" width="160" height="50" as="geometry" />
        </mxCell>
        <mxCell id="ACM8DL77gfRhHcdZKNCy-89" value="Sıçanlar" style="swimlane;fontStyle=1;align=center;verticalAlign=top;childLayout=stackLayout;horizontal=1;startSize=26;horizontalStack=0;resizeParent=1;resizeParentMax=0;resizeLast=0;collapsible=1;marginBottom=0;whiteSpace=wrap;html=1;" vertex="1" parent="1">
          <mxGeometry x="920" y="-380" width="160" height="86" as="geometry" />
        </mxCell>
        <mxCell id="ACM8DL77gfRhHcdZKNCy-90" value="" style="line;strokeWidth=1;fillColor=none;align=left;verticalAlign=middle;spacingTop=-1;spacingLeft=3;spacingRight=3;rotatable=0;labelPosition=right;points=[];portConstraint=eastwest;strokeColor=inherit;" vertex="1" parent="ACM8DL77gfRhHcdZKNCy-89">
          <mxGeometry y="26" width="160" height="10" as="geometry" />
        </mxCell>
        <mxCell id="ACM8DL77gfRhHcdZKNCy-91" value="+ getDosage(): void&lt;br&gt;+ getFeedSchedule(): void" style="text;strokeColor=none;fillColor=none;align=left;verticalAlign=top;spacingLeft=4;spacingRight=4;overflow=hidden;rotatable=0;points=[[0,0.5],[1,0.5]];portConstraint=eastwest;whiteSpace=wrap;html=1;" vertex="1" parent="ACM8DL77gfRhHcdZKNCy-89">
          <mxGeometry y="36" width="160" height="50" as="geometry" />
        </mxCell>
        <mxCell id="ACM8DL77gfRhHcdZKNCy-92" value="Kunduzlar" style="swimlane;fontStyle=1;align=center;verticalAlign=top;childLayout=stackLayout;horizontal=1;startSize=26;horizontalStack=0;resizeParent=1;resizeParentMax=0;resizeLast=0;collapsible=1;marginBottom=0;whiteSpace=wrap;html=1;" vertex="1" parent="1">
          <mxGeometry x="1130" y="-380" width="160" height="86" as="geometry" />
        </mxCell>
        <mxCell id="ACM8DL77gfRhHcdZKNCy-93" value="" style="line;strokeWidth=1;fillColor=none;align=left;verticalAlign=middle;spacingTop=-1;spacingLeft=3;spacingRight=3;rotatable=0;labelPosition=right;points=[];portConstraint=eastwest;strokeColor=inherit;" vertex="1" parent="ACM8DL77gfRhHcdZKNCy-92">
          <mxGeometry y="26" width="160" height="10" as="geometry" />
        </mxCell>
        <mxCell id="ACM8DL77gfRhHcdZKNCy-94" value="+ getDosage(): void&lt;br&gt;+ getFeedSchedule(): void" style="text;strokeColor=none;fillColor=none;align=left;verticalAlign=top;spacingLeft=4;spacingRight=4;overflow=hidden;rotatable=0;points=[[0,0.5],[1,0.5]];portConstraint=eastwest;whiteSpace=wrap;html=1;" vertex="1" parent="ACM8DL77gfRhHcdZKNCy-92">
          <mxGeometry y="36" width="160" height="50" as="geometry" />
        </mxCell>
        <mxCell id="ACM8DL77gfRhHcdZKNCy-95" value="" style="shape=stencil(fZbdcgIhDIWfZm8zQAg/17Z9j85U606tdqz9e/tmZ0c0uJ47xP0I5JwEBl59bp8/1kNwn6fj4W39M76ctgM/DCGM++36OJ50NPDjwKvN4bh+PR6+9i/z74/n6ctp9H74nlb4nbmSKZeJCu5vngmZ6jzzNAO7cX8FVKEsBuBKrgKg9oAE8gkCbLeUhEoEQKSUDZDLeWYRKIl8MEDRmHwfyBrBG6Amyu4+kDxxMoB3jhwgYu7TVAsVkFcWCs4CTBEoF4RctKeOxHIf8IXYpikHikAIf+MNUW94AGSSaoAoFIE3AlOyeWU+p2E5S9yfQZcQILVuQOwZdJNoS9Ls3wA5u2XZTIHECqeJ9kDpSaauRiNVcAY1QhdBzeLBli5WazpkSsBLV25uRaqWRyFawTQzRRIQYirJzq5atkBqLfouwqUxLBepthWb10vrWZY6UOAeyKCCtDV625mm9gmUC4Wc3VLJMMIE1BsA2FW9JraVlQB7n3c9oMKhCLEvIM1zBPZ25/umNQ1tVEC2G+fFCC8g398O2hNQuQlVu752DBfA+q0ptnqO5JFmeuIuo9DY7KjY71UxdJV4EntifPWorW++R/dC4t7V3DlIB5cHx2bc7eb3yvX//QNFp+bHDT/+Aw==);lineShape=1;" vertex="1" parent="1">
          <mxGeometry x="1019.7233007020632" y="-225.1039062845673" width="3.8937831434293457" height="3.8876968469647486" as="geometry" />
        </mxCell>
      </root>
    </mxGraphModel>
  </diagram>
</mxfile>
